<?xml version="1.0" encoding="UTF-8" standalone="no"?>
<svg
   xmlns:dc="http://purl.org/dc/elements/1.1/"
   xmlns:cc="http://creativecommons.org/ns#"
   xmlns:rdf="http://www.w3.org/1999/02/22-rdf-syntax-ns#"
   xmlns:svg="http://www.w3.org/2000/svg"
   xmlns="http://www.w3.org/2000/svg"
   xmlns:sodipodi="http://sodipodi.sourceforge.net/DTD/sodipodi-0.dtd"
   xmlns:inkscape="http://www.inkscape.org/namespaces/inkscape"
   inkscape:version="1.0 (4035a4fb49, 2020-05-01)"
   sodipodi:docname="save-hover.svg"
   version="1.1"
   width="512px"
   viewBox="0 0 512.007 512.007"
   height="512px"
   enable-background="new 0 0 512.007 512.007"
   id="Capa_1">
  <metadata
     id="metadata13">
    <rdf:RDF>
      <cc:Work
         rdf:about="">
        <dc:format>image/svg+xml</dc:format>
        <dc:type
           rdf:resource="http://purl.org/dc/dcmitype/StillImage" />
        <dc:title></dc:title>
      </cc:Work>
    </rdf:RDF>
  </metadata>
  <defs
     id="defs11" />
  <sodipodi:namedview
     inkscape:current-layer="Capa_1"
     inkscape:window-maximized="1"
     inkscape:window-y="-5"
     inkscape:window-x="-8"
     inkscape:cy="374.16509"
     inkscape:cx="-261.3226"
     inkscape:zoom="0.58695387"
     showgrid="false"
     id="namedview9"
     inkscape:window-height="1017"
     inkscape:window-width="1920"
     inkscape:pageshadow="2"
     inkscape:pageopacity="0"
     guidetolerance="10"
     gridtolerance="10"
     objecttolerance="10"
     borderopacity="1"
     bordercolor="#666666"
     pagecolor="#ffffff" />
  <g
     style="fill:#e7eff6;fill-opacity:1"
     id="g6">
    <g
       style="fill:#e7eff6;fill-opacity:1"
       id="g4">
      <path
         style="fill:#e7eff6;fill-opacity:1"
         id="path2"
         fill="#000000"
         class="active-path"
         data-original="#000000"
         d="m511.927 126.537c-.279-2.828-1.38-5.666-3.315-8.027-.747-.913 6.893 6.786-114.006-114.113-2.882-2.882-6.794-4.395-10.612-4.394-9.096 0-329.933 0-338.995 0-24.813 0-45 20.187-45 45v422c0 24.813 20.187 45 45 45h422c24.813 0 45-20.187 45-45 .001-364.186.041-339.316-.072-340.466zm-166.927-96.534v98c0 8.271-6.729 15-15 15h-19v-113zm-64 0v113h-139c-8.271 0-15-6.729-15-15v-98zm64 291h-218v-19c0-8.271 6.729-15 15-15h188c8.271 0 15 6.729 15 15zm-218 161v-131h218v131zm355-15c0 8.271-6.729 15-15 15h-92c0-19.555 0-157.708 0-180 0-24.813-20.187-45-45-45h-188c-24.813 0-45 20.187-45 45v180h-52c-8.271 0-15-6.729-15-15v-422c0-8.271 6.729-15 15-15h52v98c0 24.813 20.187 45 45 45h188c24.813 0 45-20.187 45-45v-98h2.787l104.213 104.214z" />
    </g>
  </g>
</svg>
