<?xml version="1.0" encoding="UTF-8" standalone="no"?>
<svg
   xmlns:dc="http://purl.org/dc/elements/1.1/"
   xmlns:cc="http://creativecommons.org/ns#"
   xmlns:rdf="http://www.w3.org/1999/02/22-rdf-syntax-ns#"
   xmlns:svg="http://www.w3.org/2000/svg"
   xmlns="http://www.w3.org/2000/svg"
   xmlns:sodipodi="http://sodipodi.sourceforge.net/DTD/sodipodi-0.dtd"
   xmlns:inkscape="http://www.inkscape.org/namespaces/inkscape"
   inkscape:version="1.0 (4035a4fb49, 2020-05-01)"
   sodipodi:docname="undo-hover.svg"
   version="1.1"
   class=""
   height="512px"
   width="512px"
   viewBox="0 0 512 512"
   id="Solid">
  <metadata
     id="metadata11">
    <rdf:RDF>
      <cc:Work
         rdf:about="">
        <dc:format>image/svg+xml</dc:format>
        <dc:type
           rdf:resource="http://purl.org/dc/dcmitype/StillImage" />
      </cc:Work>
    </rdf:RDF>
  </metadata>
  <defs
     id="defs9" />
  <sodipodi:namedview
     inkscape:current-layer="Solid"
     inkscape:window-maximized="0"
     inkscape:window-y="3"
     inkscape:window-x="0"
     inkscape:cy="256"
     inkscape:cx="256"
     inkscape:zoom="1.6601562"
     showgrid="false"
     id="namedview7"
     inkscape:window-height="623"
     inkscape:window-width="1380"
     inkscape:pageshadow="2"
     inkscape:pageopacity="0"
     guidetolerance="10"
     gridtolerance="10"
     objecttolerance="10"
     borderopacity="1"
     bordercolor="#666666"
     pagecolor="#ffffff" />
  <g
     style="fill:#e7eff6;fill-opacity:1"
     id="g4">
    <path
       style="fill:#e7eff6;fill-opacity:1"
       id="path2"
       fill="#63ACE5"
       data-old_color="#000000"
       class=""
       data-original="#000000"
       d="M488,256A232.014,232.014,0,0,1,114.533,439.892,233.557,233.557,0,0,1,32.508,318.447a24,24,0,1,1,46.235-12.894,185.25,185.25,0,0,0,65.083,96.312A182.236,182.236,0,0,0,256,440c101.458,0,184-82.542,184-184S357.458,72,256,72a182.241,182.241,0,0,0-112.175,38.135,184.6,184.6,0,0,0-32.139,31.792l-18.549,5.456L90.161,93.807A231.977,231.977,0,0,1,488,256ZM62.771,223.024l136-40a24,24,0,1,0-13.543-46.048L78.282,168.43,71.962,54.669a24,24,0,1,0-47.924,2.662l8,144a24,24,0,0,0,30.734,21.693Z" />
  </g>
</svg>
